<?xml version="1.0" encoding="utf-8"?>
<!-- Generator: Adobe Illustrator 16.0.0, SVG Export Plug-In . SVG Version: 6.00 Build 0)  -->
<!DOCTYPE svg PUBLIC "-//W3C//DTD SVG 1.1//EN" "http://www.w3.org/Graphics/SVG/1.1/DTD/svg11.dtd">
<svg version="1.1" id="Layer_1" xmlns="http://www.w3.org/2000/svg" xmlns:xlink="http://www.w3.org/1999/xlink" x="0px" y="0px"
	 width="227px" height="227px" viewBox="0 0 227 227" enable-background="new 0 0 227 227" xml:space="preserve">
<path fill="#FCFCFC" d="M192.045,117.775c-2.758-11.847-9.308-18.75-16.537-21.767c-7.228-3.016-16.337-2.637-16.337-2.637
	s6.229-6.097,8.136-11.092c1.91-4.991,1.727-11.927,1.104-15.394c-0.623-3.465-3.687-17.885-16.922-23.257
	c-10.232-4.157-20.743-4.161-34.205-1.599l-7.366-28.8l-17.776,4.538l7.277,28.456l-13.538,3.457l-7.28-28.458l-17.775,4.534
	l7.282,28.459l-34.969,8.925l4.716,18.434l10.276-2.621c2.806-0.716,7.867-1.676,10.59,0.15c2.722,1.825,3.417,2.973,4.593,7.576
	l18.793,73.469c0.446,1.745,0.666,3.986-0.468,5.78c-1.136,1.789-2.543,2.504-6.117,3.416l-10.631,2.709l1.803,22.263l34.967-8.927
	l7.259,28.378l17.771-4.537l-7.259-28.375l13.538-3.454l7.259,28.374l17.777-4.537l-7.375-28.845
	c4.522-1.439,8.717-2.877,11.131-3.848l0.385-0.15c5.074-2.02,15.859-6.313,24.446-16.262
	C195.398,141.933,194.813,129.618,192.045,117.775z M99.784,104.022L91.018,69.76c0,0,5.522-1.939,11.109-3.279
	c5.588-1.337,10.527-2.424,18.41-2.048c7.882,0.379,13.597,4.748,15.426,11.181c1.816,6.429,0.098,11.463-4.188,15.472
	c-4.281,4.013-10.789,7.261-17.207,9.166C108.152,102.153,99.784,104.022,99.784,104.022z M152.514,144.479
	c-3.496,3.281-11.129,7.35-18.866,9.943c-7.744,2.601-19.601,5.357-19.601,5.357l-9.743-38.083c0,0,11.147-3.464,20.1-5.131
	c8.954-1.663,16.918-1.314,20.667-0.497c3.745,0.809,10.493,2.975,12.722,11.688C160.022,136.462,156.011,141.201,152.514,144.479z"
	/>
</svg>
