<?xml version="1.0" encoding="utf-8"?>
<!-- Generator: Adobe Illustrator 16.0.0, SVG Export Plug-In . SVG Version: 6.00 Build 0)  -->
<!DOCTYPE svg PUBLIC "-//W3C//DTD SVG 1.1//EN" "http://www.w3.org/Graphics/SVG/1.1/DTD/svg11.dtd">
<svg version="1.1" id="Layer_1" xmlns="http://www.w3.org/2000/svg" xmlns:xlink="http://www.w3.org/1999/xlink" x="0px" y="0px"
	 width="226.777px" height="226.777px" viewBox="0 0 226.777 226.777" enable-background="new 0 0 226.777 226.777"
	 xml:space="preserve">
<path fill="#FFFFFF" d="M182.981,112.854c-7.3-5.498-17.699-7.697-17.699-7.697s8.8-5.102,12.396-10.199
	c3.601-5.099,5.399-12.999,5.7-17.098c0.299-4.102,1-21.296-12.398-31.193c-10.364-7.658-22.241-10.698-38.19-11.687V0.278h-21.396
	V34.57H95.096V0.278H73.702V34.57H31.61v22.219h12.372c3.373,0,9.372,0.375,11.921,3.229c2.55,2.848,3,4.349,3,9.895l0.001,88.535
	c0,2.099-0.4,4.697-2.201,6.397c-1.798,1.701-3.597,2.099-7.897,2.099H36.009l-4.398,25.698h42.092v34.194h21.396v-34.194h16.297
	v34.194h21.396v-34.759c5.531-0.323,10.688-0.742,13.696-1.136c6.1-0.798,19.896-2.398,32.796-11.397
	c12.896-9,15.793-23.098,16.094-37.294C195.68,128.052,190.274,118.353,182.981,112.854L182.981,112.854z M95.096,58.766
	c0,0,6.798-0.6,13.496-0.501c6.701,0.099,12.598,0.3,21.398,3c8.797,2.7,13.992,9.3,14.196,17.099
	c0.198,7.799-3.204,12.996-9.2,16.296c-5.998,3.299-14.292,5.099-22.094,5.396c-7.797,0.301-17.797,0-17.797,0V58.766z
	 M142.986,161.045c-4.899,2.701-14.698,5.101-24.194,5.798c-9.499,0.701-23.695,0.401-23.695,0.401v-45.893
	c0,0,13.598-0.698,24.196,0c10.598,0.702,19.495,3.399,23.492,5.402c3.999,1.998,11,6.396,11,16.896
	C153.785,154.146,147.882,158.345,142.986,161.045z"/>
</svg>
