<?xml version="1.0" encoding="utf-8"?>
<!-- Generator: Adobe Illustrator 16.0.0, SVG Export Plug-In . SVG Version: 6.00 Build 0)  -->
<!DOCTYPE svg PUBLIC "-//W3C//DTD SVG 1.1//EN" "http://www.w3.org/Graphics/SVG/1.1/DTD/svg11.dtd">
<svg version="1.1" id="Layer_1" xmlns="http://www.w3.org/2000/svg" xmlns:xlink="http://www.w3.org/1999/xlink" x="0px" y="0px"
	 width="1792px" height="1792px" viewBox="0 0 1792 1792" enable-background="new 0 0 1792 1792" xml:space="preserve">
<path fill="#FFFFFF" d="M1362,1185c0,102-33.167,189.833-99.5,263.5S1110,1567.667,1004,1585v175c0,9.333-3,17-9,23s-13.667,9-23,9
	H837c-8.667,0-16.167-3.167-22.5-9.5s-9.5-13.833-9.5-22.5v-175c-44-6-86.5-16.333-127.5-31s-74.833-29.5-101.5-44.5
	s-51.333-31-74-48s-38.167-29.5-46.5-37.5s-14.167-14-17.5-18c-11.333-14-12-27.667-2-41l103-135c4.667-6.667,12.333-10.667,23-12
	c10-1.333,18,1.667,24,9l2,2c75.333,66,156.333,107.667,243,125c24.667,5.333,49.333,8,74,8c54,0,101.5-14.333,142.5-43
	s61.5-69.333,61.5-122c0-18.667-5-36.333-15-53s-21.167-30.667-33.5-42s-31.833-23.833-58.5-37.5s-48.667-24.333-66-32
	s-44-18.5-80-32.5c-26-10.667-46.5-19-61.5-25S759,960.167,733,948.5s-46.833-22-62.5-31S636,896.667,614,882
	s-39.833-28.833-53.5-42.5s-28.167-30-43.5-49s-27.167-38.333-35.5-58s-15.333-41.833-21-66.5s-8.5-50.667-8.5-78
	c0-92,32.667-172.667,98-242s150.333-114,255-134V32c0-8.667,3.167-16.167,9.5-22.5S828.333,0,837,0h135c9.333,0,17,3,23,9
	s9,13.667,9,23v176c38,4,74.833,11.667,110.5,23s64.667,22.5,87,33.5S1245,288,1265,302s33,23.667,39,29s11,10,15,14
	c11.333,12,13,24.667,5,38l-81,146c-5.333,10-13,15.333-23,16c-9.333,2-18.333-0.333-27-7c-2-2-6.833-6-14.5-12
	s-20.667-14.833-39-26.5s-37.833-22.333-58.5-32s-45.5-18.333-74.5-26S949,430,921,430c-63.333,0-115,14.333-155,43
	s-60,65.667-60,111c0,17.333,2.833,33.333,8.5,48s15.5,28.5,29.5,41.5s27.167,24,39.5,33s31,19.333,56,31s45.167,20.667,60.5,27
	s38.667,15.5,70,27.5c35.333,13.333,62.333,23.833,81,31.5s44,19.333,76,35s57.167,29.833,75.5,42.5s39,29.333,62,50
	s40.667,41.833,53,63.5s22.833,47.167,31.5,76.5C1357.666,1120.333,1362,1151.667,1362,1185z"/>
</svg>
