<?xml version="1.0" encoding="utf-8"?>
<!-- Generator: Adobe Illustrator 16.0.0, SVG Export Plug-In . SVG Version: 6.00 Build 0)  -->
<!DOCTYPE svg PUBLIC "-//W3C//DTD SVG 1.1//EN" "http://www.w3.org/Graphics/SVG/1.1/DTD/svg11.dtd">
<svg version="1.1" id="Layer_1" xmlns="http://www.w3.org/2000/svg" xmlns:xlink="http://www.w3.org/1999/xlink" x="0px" y="0px"
	 width="2000px" height="2000px" viewBox="0 0 2000 2000" enable-background="new 0 0 2000 2000" xml:space="preserve">
<circle fill="#FFFFFF" cx="1157.716" cy="1197.504" r="53.139"/>
<circle fill="#FFFFFF" cx="1276.296" cy="1087.099" r="57.267"/>
<circle fill="#FFFFFF" cx="1377.425" cy="930.785" r="65.573"/>
<circle fill="#FFFFFF" cx="1442.998" cy="718.783" r="94.065"/>
<circle fill="#FFFFFF" cx="1479.268" cy="461.146" r="101.843"/>
<circle fill="#FFFFFF" cx="1450.776" cy="162.01" r="125.935"/>
<ellipse fill="#FFFFFF" cx="1285.509" cy="1307.508" rx="45.538" ry="45.538"/>
<ellipse fill="#FFFFFF" cx="1406.296" cy="1239.018" rx="49.074" ry="49.074"/>
<ellipse fill="#FFFFFF" cx="1521.631" cy="1128.811" rx="56.191" ry="56.191"/>
<ellipse fill="#FFFFFF" cx="1618.391" cy="965.088" rx="80.609" ry="80.609"/>
<ellipse fill="#FFFFFF" cx="1699.815" cy="757.548" rx="87.275" ry="87.275"/>
<ellipse fill="#FFFFFF" cx="1735.477" cy="502.526" rx="107.928" ry="107.928"/>
<ellipse transform="matrix(-0.9024 -0.4309 0.4309 -0.9024 2040.2677 3304.1907)" fill="#FFFFFF" cx="1394.351" cy="1421.024" rx="38.465" ry="38.474"/>
<ellipse fill="#FFFFFF" cx="1506.272" cy="1385.887" rx="41.464" ry="41.464"/>
<ellipse fill="#FFFFFF" cx="1621.111" cy="1315.338" rx="47.469" ry="47.469"/>
<ellipse fill="#FFFFFF" cx="1730.074" cy="1197.279" rx="68.095" ry="68.095"/>
<ellipse fill="#FFFFFF" cx="1834.134" cy="1040.269" rx="73.73" ry="73.73"/>
<ellipse fill="#FFFFFF" cx="1908.83" cy="835.949" rx="91.173" ry="91.173"/>
<ellipse fill="#FFFFFF" cx="1169.227" cy="814.223" rx="53.139" ry="53.139"/>
<ellipse fill="#FFFFFF" cx="1014.322" cy="766.738" rx="57.267" ry="57.267"/>
<ellipse fill="#FFFFFF" cx="828.394" cy="757.327" rx="65.573" ry="65.573"/>
<ellipse fill="#FFFFFF" cx="612.013" cy="806.541" rx="94.065" ry="94.065"/>
<ellipse fill="#FFFFFF" cx="370.766" cy="903.948" rx="101.843" ry="101.843"/>
<ellipse fill="#FFFFFF" cx="125.954" cy="1078.184" rx="125.935" ry="125.935"/>
<ellipse fill="#FFFFFF" cx="1200.697" cy="648.559" rx="45.538" ry="45.538"/>
<ellipse fill="#FFFFFF" cx="1080.993" cy="578.195" rx="49.074" ry="49.074"/>
<ellipse fill="#FFFFFF" cx="927.873" cy="533.401" rx="56.191" ry="56.191"/>
<ellipse fill="#FFFFFF" cx="737.706" cy="531.433" rx="80.608" ry="80.608"/>
<ellipse fill="#FFFFFF" cx="517.242" cy="564.7" rx="87.275" ry="87.275"/>
<ellipse fill="#FFFFFF" cx="278.535" cy="661.318" rx="107.928" ry="107.928"/>
<ellipse fill="#FFFFFF" cx="1244.53" cy="497.664" rx="38.466" ry="38.466"/>
<ellipse fill="#FFFFFF" cx="1158.136" cy="418.315" rx="41.464" ry="41.464"/>
<ellipse fill="#FFFFFF" cx="1039.555" cy="354.145" rx="47.469" ry="47.469"/>
<ellipse fill="#FFFFFF" cx="882.836" cy="318.793" rx="68.095" ry="68.095"/>
<ellipse fill="#FFFFFF" cx="694.848" cy="307.158" rx="73.73" ry="73.73"/>
<ellipse fill="#FFFFFF" cx="480.55" cy="344.61" rx="91.173" ry="91.173"/>
<ellipse fill="#FFFFFF" cx="833.457" cy="1008.182" rx="53.139" ry="53.139"/>
<ellipse fill="#FFFFFF" cx="869.785" cy="1166.076" rx="57.267" ry="57.267"/>
<ellipse fill="#FFFFFF" cx="954.583" cy="1331.812" rx="65.573" ry="65.573"/>
<ellipse fill="#FFFFFF" cx="1105.406" cy="1494.611" rx="94.065" ry="94.065"/>
<ellipse fill="#FFFFFF" cx="1310.366" cy="1654.844" rx="101.843" ry="101.843"/>
<ellipse fill="#FFFFFF" cx="1583.672" cy="1779.739" rx="125.935" ry="125.935"/>
<ellipse fill="#FFFFFF" cx="674.2" cy="1063.816" rx="45.538" ry="45.538"/>
<ellipse fill="#FFFFFF" cx="673.109" cy="1202.664" rx="49.074" ry="49.074"/>
<ellipse fill="#FFFFFF" cx="710.884" cy="1357.667" rx="56.191" ry="56.191"/>
<ellipse fill="#FFFFFF" cx="804.27" cy="1523.352" rx="80.609" ry="80.609"/>
<ellipse fill="#FFFFFF" cx="943.311" cy="1697.641" rx="87.275" ry="87.275"/>
<ellipse fill="#FFFFFF" cx="1146.332" cy="1856.062" rx="107.927" ry="107.927"/>
<ellipse transform="matrix(-0.5661 -0.8244 0.8244 -0.5661 -90.9346 2154.7788)" fill="#FFFFFF" cx="521.653" cy="1101.323" rx="38.466" ry="38.475"/>
<ellipse fill="#FFFFFF" cx="496.134" cy="1215.808" rx="41.455" ry="41.455"/>
<ellipse fill="#FFFFFF" cx="499.842" cy="1350.528" rx="47.469" ry="47.469"/>
<ellipse fill="#FFFFFF" cx="547.598" cy="1503.922" rx="68.095" ry="68.095"/>
<ellipse fill="#FFFFFF" cx="631.534" cy="1672.531" rx="73.73" ry="73.73"/>
<ellipse fill="#FFFFFF" cx="771.137" cy="1839.375" rx="91.173" ry="91.173"/>
</svg>
