<?xml version="1.0" encoding="utf-8"?>
<!-- Generator: Adobe Illustrator 16.0.0, SVG Export Plug-In . SVG Version: 6.00 Build 0)  -->
<!DOCTYPE svg PUBLIC "-//W3C//DTD SVG 1.1//EN" "http://www.w3.org/Graphics/SVG/1.1/DTD/svg11.dtd">
<svg version="1.1" id="Layer_1" xmlns="http://www.w3.org/2000/svg" xmlns:xlink="http://www.w3.org/1999/xlink" x="0px" y="0px"
	 width="226.777px" height="226.777px" viewBox="0 0 226.777 226.777" enable-background="new 0 0 226.777 226.777"
	 xml:space="preserve">
<path fill="#FFFFFF" d="M78.6,106.173c0.496-0.27,0.938-0.521,1.376-0.792c15.509-9.309,24.779-25.579,24.856-43.567l-0.002-0.137
	c0-24.766,12.936-46.863,33.7-58.891c-8.358-0.907-16.76-1.365-25.167-1.37c-38.646,0-77.097,9.601-111.201,27.76
	c-1.604,0.854-1.715,1.041-1.838,1.259c-0.268,0.463-0.345,0.634-0.321,1.471c0.411,13.533,1.983,27.007,4.699,40.271
	c0.618,2.988,1.295,5.963,2.028,8.925c7.849,18.838,26.752,31.479,47.109,31.479C62.509,112.58,71.072,110.364,78.6,106.173z
	 M139.541,120.942c-0.396-0.243-0.795-0.478-1.2-0.704l-0.469-0.271c-7.336-4.057-15.862-6.252-24.488-6.252
	c-8.671,0-17.2,2.195-24.669,6.354c-0.513,0.318-1.19,0.715-1.868,1.082c-10.017,5.569-21.439,8.521-33.005,8.521
	c-11.688,0-23.276-3.116-33.5-8.91c18.95,42.441,50.367,79.016,89.329,103.742c0.934,0.597,1.578,0.855,3.853,0.855
	c2.059,0,2.56-0.208,3.569-0.847c10.603-6.735,20.65-14.307,30.05-22.641c2.296-2.044,4.552-4.133,6.766-6.265
	c6.745-8.873,10.457-19.835,10.457-30.899C164.363,146.876,154.852,130.105,139.541,120.942z M226.444,30.431
	c-0.121-0.208-0.231-0.4-1.838-1.257c-11.373-6.056-23.222-11.171-35.43-15.295c-2.806-0.944-5.629-1.837-8.469-2.676
	c-2.58-0.396-5.188-0.597-7.798-0.6c-27.901,0-50.641,22.531-50.979,50.355v0.653c0.008,17.994,9.207,34.302,24.615,43.628
	l0.225,0.137c0.471,0.255,1.062,0.593,1.617,0.931c20.193,12.09,32.822,34.165,33.062,57.717
	c27.873-38.406,43.886-84.933,45.31-132.139C226.783,31.054,226.719,30.909,226.444,30.431z"/>
</svg>
