<?xml version="1.0" encoding="utf-8"?>
<!-- Generator: Adobe Illustrator 16.0.0, SVG Export Plug-In . SVG Version: 6.00 Build 0)  -->
<!DOCTYPE svg PUBLIC "-//W3C//DTD SVG 1.1//EN" "http://www.w3.org/Graphics/SVG/1.1/DTD/svg11.dtd">
<svg version="1.1" id="Layer_1" xmlns="http://www.w3.org/2000/svg" xmlns:xlink="http://www.w3.org/1999/xlink" x="0px" y="0px"
	 width="226.777px" height="226.777px" viewBox="0 0 226.777 226.777" enable-background="new 0 0 226.777 226.777"
	 xml:space="preserve">
<path fill="#FFFFFF" d="M39.722,149.021v-95.15l73.74,73.741l73.669-73.669v95.079h33.937c3.791-11.482,5.719-23.498,5.709-35.59
	c0-62.601-50.746-113.348-113.347-113.348S0.083,50.832,0.083,113.432c0,12.435,2.008,24.396,5.709,35.59L39.722,149.021
	L39.722,149.021z"/>
<path fill="#FFFFFF" d="M162.54,172.077v-60.152l-49.495,49.495l-49.147-49.147v59.806h-47.48
	c19.864,32.786,55.879,54.7,97.014,54.7s77.148-21.914,97.013-54.7L162.54,172.077L162.54,172.077z"/>
</svg>
