<?xml version="1.0" encoding="utf-8"?>
<!-- Generator: Adobe Illustrator 16.0.0, SVG Export Plug-In . SVG Version: 6.00 Build 0)  -->
<!DOCTYPE svg PUBLIC "-//W3C//DTD SVG 1.1//EN" "http://www.w3.org/Graphics/SVG/1.1/DTD/svg11.dtd">
<svg version="1.1" id="Layer_1" xmlns="http://www.w3.org/2000/svg" xmlns:xlink="http://www.w3.org/1999/xlink" x="0px" y="0px"
	 width="226.777px" height="226.777px" viewBox="0 0 226.777 226.777" enable-background="new 0 0 226.777 226.777"
	 xml:space="preserve">
<path fill="#FFFFFF" d="M196.224,139.515c-7.591-4.162-15.849-6.091-23.981-6.026l0.069-0.039
	c-11.158,0.128-20.312-8.55-20.442-19.38c-0.129-10.687,8.565-19.467,19.505-19.832v-0.005l-0.02-0.01
	c8.275-0.04,16.648-2.146,24.276-6.548c22.811-13.165,30.31-41.786,16.749-63.93C198.818,1.602,169.334-5.677,146.524,7.488
	c-22.811,13.164-30.309,41.787-16.747,63.93c5.647,9.228,2.525,21.152-6.979,26.639c-9.368,5.406-21.433,2.533-27.188-6.384
	l-0.005,0.002V91.7c-4.147-6.951-10.189-12.956-17.913-17.192c-23.104-12.672-52.417-4.764-65.47,17.667
	c-13.054,22.427-4.903,50.883,18.2,63.554c23.105,12.672,52.415,4.763,65.47-17.667c0.079-0.136,0.148-0.275,0.226-0.411v0.033
	l0.005,0.002c5.545-9.055,17.555-12.191,27.047-6.985c9.628,5.281,13.021,17.136,7.583,26.48
	c-13.055,22.431-4.903,50.885,18.199,63.555c23.104,12.673,52.417,4.763,65.47-17.667
	C227.474,180.64,219.327,152.187,196.224,139.515z"/>
</svg>
